<svg width="57" height="57" viewBox="0 0 57 57" fill="none" xmlns="http://www.w3.org/2000/svg">
<path fill-rule="evenodd" clip-rule="evenodd" d="M28.5 57C44.2401 57 57 44.2401 57 28.5C57 12.7599 44.2401 0 28.5 0C12.7599 0 0 12.7599 0 28.5C0 44.2401 12.7599 57 28.5 57Z" fill="#0A102A"/>
<path d="M19.4679 38.2552C18.3102 37.2737 17.5492 35.8976 17.3289 34.3877C17.0273 32.0812 18.0223 29.5507 20.338 26.8627C24.5743 21.9137 24.4183 17.3637 23.9468 15.0957C23.4753 12.8277 22.2689 10.8292 20.8511 9.99268C21.8495 10.0207 25.1636 10.3427 27.3927 13.0377C29.386 15.4632 29.9857 19.1382 29.178 23.9647C29.0892 23.0936 28.9375 22.2303 28.7239 21.3817C28.3321 19.8242 27.5452 17.7592 26.0441 16.7407L25.7737 16.5517C26.3213 17.6454 26.7078 18.8138 26.9212 20.0202C27.0844 21.0141 27.075 22.029 26.8935 23.0197C26.6781 24.1568 26.1699 25.2167 25.4201 26.0927C24.602 27.0105 23.7254 27.8733 22.7959 28.6757C20.0121 31.1852 17.3775 33.5617 19.4679 38.2552Z" fill="#D930FF"/>
<path d="M28.1272 44.5201C27.762 44.2107 27.435 43.8582 27.153 43.4701C26.4067 42.4661 25.9378 41.28 25.7941 40.0331C25.6904 39.0944 25.7783 38.1443 26.0526 37.2413C26.3269 36.3383 26.7816 35.5017 27.3888 34.7831C29.1352 32.6995 30.4697 30.2971 31.32 27.7061L31.4032 27.4541L31.2021 27.6291C30.6268 28.126 30.0044 28.5645 29.344 28.9381C23.6656 32.2281 21.173 36.1096 21.544 41.1146C21.2071 40.1195 21.011 39.0815 20.9616 38.0311C20.8865 36.7013 21.089 35.3704 21.556 34.1248C22.023 32.8791 22.7441 31.7464 23.6725 30.8001C25.2153 29.2004 27.0055 27.8647 28.973 26.8451C30.2109 26.1607 31.2227 25.1249 31.8833 23.8657C32.5438 22.6066 32.8241 21.1794 32.6893 19.7611C32.5258 18.4509 32.0617 17.1973 31.3338 16.1001C32.6591 17.4712 33.8309 18.9853 34.8282 20.6151C35.8115 22.1965 36.535 23.928 36.9706 25.7426C37.4426 27.6913 37.3633 29.7346 36.7418 31.6401L36.6586 31.8886L36.8562 31.7206C38.0094 30.6848 38.8655 29.3551 39.3349 27.8706C39.3314 28.6645 39.256 29.4565 39.1096 30.2366C38.734 32.3433 37.7831 34.3023 36.364 35.8926L36.1213 36.1796C36.1213 36.1796 37.8546 35.2101 39.5013 35.2101C39.813 35.2105 40.124 35.2398 40.4304 35.2976C39.9208 35.6476 38.1701 36.8236 36.4125 38.2551C33.7813 40.3936 32.301 42.1051 32.0064 43.3266C31.6789 42.5378 31.4338 41.7167 31.2749 40.8766C31.0114 39.4766 31.053 37.1806 32.0861 35.4796L31.8504 35.6371C31.1474 36.1485 30.5572 36.8016 30.117 37.5551C29.3197 38.8011 28.3282 41.0201 28.1272 44.5201Z" fill="#01D1D1"/>
</svg>
