<svg width="208" height="70" viewBox="0 0 208 70" fill="none" xmlns="http://www.w3.org/2000/svg">
<path fill-rule="evenodd" clip-rule="evenodd" d="M33.5 64C49.2401 64 62 51.2401 62 35.5C62 19.7599 49.2401 7 33.5 7C17.7599 7 5 19.7599 5 35.5C5 51.2401 17.7599 64 33.5 64Z" fill="#0A102A"/>
<path d="M24.4679 45.2552C23.3102 44.2737 22.5492 42.8976 22.3289 41.3877C22.0273 39.0812 23.0223 36.5507 25.338 33.8627C29.5743 28.9137 29.4183 24.3637 28.9468 22.0957C28.4753 19.8277 27.2689 17.8292 25.8511 16.9927C26.8495 17.0207 30.1636 17.3427 32.3927 20.0377C34.386 22.4632 34.9857 26.1382 34.178 30.9647C34.0892 30.0936 33.9375 29.2303 33.7239 28.3817C33.3321 26.8242 32.5452 24.7592 31.0441 23.7407L30.7737 23.5517C31.3213 24.6454 31.7078 25.8138 31.9212 27.0202C32.0844 28.0141 32.075 29.029 31.8935 30.0197C31.6781 31.1568 31.1699 32.2167 30.4201 33.0927C29.602 34.0105 28.7254 34.8733 27.7959 35.6757C25.0121 38.1852 22.3775 40.5617 24.4679 45.2552Z" fill="#D930FF"/>
<path d="M33.1272 51.5201C32.762 51.2107 32.435 50.8582 32.153 50.4701C31.4067 49.4661 30.9378 48.28 30.7941 47.0331C30.6904 46.0944 30.7783 45.1443 31.0526 44.2413C31.3269 43.3383 31.7816 42.5017 32.3888 41.7831C34.1352 39.6995 35.4697 37.2971 36.32 34.7061L36.4032 34.4541L36.2021 34.6291C35.6268 35.126 35.0044 35.5645 34.344 35.9381C28.6656 39.2281 26.173 43.1096 26.544 48.1146C26.2071 47.1195 26.011 46.0815 25.9616 45.0311C25.8865 43.7013 26.089 42.3704 26.556 41.1248C27.023 39.8791 27.7441 38.7464 28.6725 37.8001C30.2153 36.2004 32.0055 34.8647 33.973 33.8451C35.2109 33.1607 36.2227 32.1249 36.8833 30.8657C37.5438 29.6066 37.8241 28.1794 37.6893 26.7611C37.5258 25.4509 37.0617 24.1973 36.3338 23.1001C37.6591 24.4712 38.8309 25.9853 39.8282 27.6151C40.8115 29.1965 41.535 30.928 41.9706 32.7426C42.4426 34.6913 42.3633 36.7346 41.7418 38.6401L41.6586 38.8886L41.8562 38.7206C43.0094 37.6848 43.8655 36.3551 44.3349 34.8706C44.3314 35.6645 44.256 36.4565 44.1096 37.2366C43.734 39.3433 42.7831 41.3023 41.364 42.8926L41.1213 43.1796C41.1213 43.1796 42.8546 42.2101 44.5013 42.2101C44.813 42.2105 45.124 42.2398 45.4304 42.2976C44.9208 42.6476 43.1701 43.8236 41.4125 45.2551C38.7813 47.3936 37.301 49.1051 37.0064 50.3266C36.6789 49.5378 36.4338 48.7167 36.2749 47.8766C36.0114 46.4766 36.053 44.1806 37.0861 42.4796L36.8504 42.6371C36.1474 43.1485 35.5572 43.8016 35.117 44.5551C34.3197 45.8011 33.3282 48.0201 33.1272 51.5201Z" fill="#01D1D1"/>
<path d="M84.376 33.008H84.304L83.08 35.456L79.816 41.384L76.624 35.48L75.352 32.84H75.28V44H71.848V27.248H75.712L79.816 35.096H79.864L83.92 27.248H87.808V44H84.376V33.008ZM95.4001 44L90.0001 27.248H93.6961L96.1921 35.288L97.5121 40.544H97.5841L98.8561 35.288L101.352 27.248H104.928L99.4801 44H95.4001ZM107.121 44V27.248H115.041C115.825 27.248 116.529 27.384 117.153 27.656C117.777 27.912 118.305 28.272 118.737 28.736C119.185 29.2 119.529 29.768 119.769 30.44C120.009 31.096 120.129 31.816 120.129 32.6C120.129 33.4 120.009 34.128 119.769 34.784C119.529 35.44 119.185 36 118.737 36.464C118.305 36.928 117.777 37.296 117.153 37.568C116.529 37.824 115.825 37.952 115.041 37.952H110.769V44H107.121ZM110.769 34.784H114.609C115.153 34.784 115.577 34.648 115.881 34.376C116.201 34.088 116.361 33.672 116.361 33.128V32.072C116.361 31.528 116.201 31.12 115.881 30.848C115.577 30.56 115.153 30.416 114.609 30.416H110.769V34.784ZM135.948 44H131.724L128.1 37.832H128.028L124.5 44H120.564L125.94 35.336L120.828 27.248H125.076L128.34 32.912H128.412L131.724 27.248H135.66L130.5 35.408L135.948 44Z" fill="#0A102A"/>
</svg>
